<?xml version="1.0" encoding="utf-8"?>
<!-- Generator: Adobe Illustrator 23.0.2, SVG Export Plug-In . SVG Version: 6.00 Build 0)  -->
<svg version="1.1" id="Layer_1" xmlns="http://www.w3.org/2000/svg" xmlns:xlink="http://www.w3.org/1999/xlink" x="0px" y="0px"
	 viewBox="0 0 1366 357" enable-background="new 0 0 1366 357" xml:space="preserve">
<g>
	<g>
		<path fill="#1A1A1A" d="M185.6,244.15c0,1.36-1.94,2.04-5.83,2.04h-13.11c-9.52-0.19-19.52,2.05-30,6.72
			c-1.17,0.37-1.85,0.56-2.04,0.56c-1.75,0-2.72-1.75-2.91-5.24c0-1.75-0.29-4.17-0.87-7.28c-7.77,8.35-18.06,12.52-30.87,12.52
			c-17.09,0-31.17-6.31-42.23-18.93c-11.07-12.62-16.6-28.64-16.6-48.06c0-19.81,5.63-35.78,16.89-47.91
			c11.26-12.13,26.11-18.2,44.56-18.2c12.04,0,21.85,4.47,29.42,13.4V92.98c0-17.48-0.78-27.82-2.33-31.02
			c-1.56-3.2-6.7-4.71-15.44-4.51c-5.05,0-7.57-0.68-7.57-2.04c0-1.36,1.17-2.04,3.53-2.04c17.84,0,34.89-2.62,51.15-7.86
			c2.35-0.77,4.01-1.17,5-1.17c2.16,0,3.24,2.33,3.24,6.99v14.56v27.96v138.94c0,3.3,0.48,5.53,1.46,6.7
			c1.36,1.75,4.76,2.53,10.19,2.33C184.15,241.63,185.6,242.4,185.6,244.15z M132.01,217.93v-63.5c0-8.74-1.47-15.24-4.4-19.52
			c-3.71-5.43-8.89-8.16-15.53-8.16c-18.75,0-28.13,20.68-28.13,62.04c0,18.45,2.39,32.72,7.18,42.82
			c4.79,10.1,11.48,15.15,20.08,15.15c5.08,0,9.82-2.28,14.21-6.84C129.81,235.36,132.01,228.03,132.01,217.93z"/>
		<path fill="#1A1A1A" d="M315.8,234.27c0,1.58-1.56,3.75-4.66,6.5c-8.35,7.69-18.64,11.53-30.87,11.53
			c-7.96,0-13.74-1.68-17.33-5.02c-3.6-3.34-5.97-9.34-7.14-18c-8.74,15.92-20.68,23.88-35.83,23.88c-8.35,0-15.1-2.62-20.24-7.86
			c-5.15-5.24-7.72-12.04-7.72-20.39c0-24.47,20.97-38.93,62.91-43.4v-6.12c0-19.42-0.68-31.36-2.04-35.83l-0.29-1.46
			c-2.72-9.71-9.61-14.56-20.68-14.56c-6.41,0-11.56,1.85-15.44,5.53c-3.89,3.69-5.83,7.28-5.83,10.78c0,1.94,2.33,3.11,6.99,3.5
			c6.99,0.58,10.49,4.86,10.49,12.82c0,4.27-1.41,7.82-4.22,10.63c-2.82,2.82-6.46,4.22-10.92,4.22c-5.63,0-10.24-1.7-13.84-5.1
			c-3.6-3.4-5.39-7.72-5.39-12.96c0-8.35,4.17-15.92,12.52-22.72c8.35-6.79,19.32-10.19,32.91-10.19c20.19,0,34.27,3.6,42.23,10.78
			c6.41,6.02,9.61,16.51,9.61,31.46v49.81c0,9.71,0.1,15.34,0.29,16.89c0.97,8.16,3.79,12.23,8.45,12.23c3.3,0,7.38-2.33,12.23-6.99
			c0.97-0.97,1.75-1.46,2.33-1.46C315.31,232.79,315.8,233.28,315.8,234.27z M254.92,199.58v-14.27
			c-18.84,3.69-28.25,14.37-28.25,32.04c0,13.59,4.66,20.39,13.98,20.39c5.24,0,8.93-2.91,11.07-8.74
			C253.85,223.18,254.92,213.37,254.92,199.58z"/>
		<path fill="#1A1A1A" d="M393.57,231.04c0,2.14-1.86,4.95-5.58,8.45c-9.58,9.13-22.79,13.69-39.61,13.69
			c-15.46,0-25.63-3.79-30.52-11.36c-1.96-2.91-3.09-5.63-3.38-8.16c-0.29-2.52-0.44-9.03-0.44-19.52v-13.98
			c0.39-3.69,0.58-7.57,0.58-11.65l-0.58-6.12v-26.21v-20.97c0-3.5-0.49-5.53-1.46-6.12c-0.97-0.58-3.89-0.87-8.74-0.87
			c-5.83,0-8.74-0.77-8.74-2.33c0-1.17,1.07-1.94,3.2-2.33c18.25-0.58,33.98-10.49,47.19-29.71c1.75-2.72,3.1-4.08,4.08-4.08
			c1.17,0,1.75,1.36,1.75,4.08c-0.2,16.7,0.48,25.83,2.04,27.38c1.55,1.56,6.31,2.33,14.27,2.33c8.16,0,13.88-0.39,17.18-1.16
			c0.39-0.19,0.77-0.29,1.17-0.29c0.77,0,1.17,0.61,1.17,1.83c0,2.85-1.25,4.27-3.75,4.27c-7.9,0.2-16.66,0.3-26.28,0.3
			c-0.77,0-2.12,0-4.04,0v6.08c0,51.78,0.39,82.11,1.17,91c1.77,11.2,7.29,16.81,16.56,16.81c4.14,0,9.46-2.91,15.97-8.74
			c3.15-2.72,5.12-4.08,5.91-4.08C393.27,229.58,393.57,230.07,393.57,231.04z"/>
		<path fill="#1A1A1A" d="M514.15,234.27c0,1.58-1.56,3.75-4.66,6.5c-8.35,7.69-18.64,11.53-30.87,11.53
			c-7.96,0-13.74-1.68-17.33-5.02c-3.6-3.34-5.97-9.34-7.14-18c-8.74,15.92-20.68,23.88-35.83,23.88c-8.35,0-15.1-2.62-20.24-7.86
			c-5.15-5.24-7.72-12.04-7.72-20.39c0-24.47,20.97-38.93,62.91-43.4v-6.12c0-19.42-0.68-31.36-2.04-35.83l-0.29-1.46
			c-2.72-9.71-9.61-14.56-20.68-14.56c-6.41,0-11.56,1.85-15.44,5.53c-3.89,3.69-5.83,7.28-5.83,10.78c0,1.94,2.33,3.11,6.99,3.5
			c6.99,0.58,10.49,4.86,10.49,12.82c0,4.27-1.41,7.82-4.22,10.63c-2.82,2.82-6.46,4.22-10.92,4.22c-5.63,0-10.24-1.7-13.84-5.1
			c-3.6-3.4-5.39-7.72-5.39-12.96c0-8.35,4.17-15.92,12.52-22.72c8.35-6.79,19.32-10.19,32.91-10.19c20.19,0,34.27,3.6,42.23,10.78
			c6.41,6.02,9.61,16.51,9.61,31.46v49.81c0,9.71,0.1,15.34,0.29,16.89c0.97,8.16,3.79,12.23,8.45,12.23c3.3,0,7.38-2.33,12.23-6.99
			c0.97-0.97,1.75-1.46,2.33-1.46C513.67,232.79,514.15,233.28,514.15,234.27z M453.28,199.58v-14.27
			c-18.84,3.69-28.25,14.37-28.25,32.04c0,13.59,4.66,20.39,13.98,20.39c5.24,0,8.93-2.91,11.07-8.74
			C452.21,223.18,453.28,213.37,453.28,199.58z"/>
		<path fill="#1A1A1A" d="M657.46,184.3c0,19.77-5.62,36.24-16.84,49.41c-11.23,13.18-25.26,19.76-42.1,19.76
			c-12.77,0-23.03-5.05-30.77-15.15v65.3c0,5.42,0.29,8.85,0.86,10.3c0.57,1.45,1.87,2.37,3.89,2.76c2.01,0.38,7.15,0.67,15.39,0.87
			c2.11,0,3.16,0.93,3.16,2.79c0,1.44-1.27,2.17-3.79,2.17c-0.2,0-1.17,0-2.91,0c-1.75,0-3.4,0-4.95,0h-29.42c-2.14,0-5.05,0-8.74,0
			c-3.69,0-7.96,0-12.82,0h-14.56c-4.27,0-6.41-0.78-6.41-2.33c0-1.36,3.5-2.04,10.49-2.04c5.83,0,9.08-0.58,9.76-1.75
			c0.68-1.17,1.02-4.86,1.02-11.07v-146.8c0-1.36,0-2.72,0-4.08c0-1.16,0-1.94,0-2.33v-8.16c0.19-4.08-1.36-6.6-4.66-7.57
			c-1.56-0.58-4.86-0.87-9.9-0.87h-5.53c-1.55,0-2.33-0.58-2.33-1.75c0-1.55,1.16-2.13,3.5-1.75c20.58-0.58,38.64-4.46,54.18-11.65
			c0.77,1.16,1.26,2.72,1.46,4.66l0.58,7.28l0.29,4.95c5.24-6.49,10.39-10.93,15.44-13.31c5.05-2.38,11.55-3.58,19.52-3.58
			c16.12,0,29.51,6.06,40.2,18.17C652.11,150.64,657.46,165.89,657.46,184.3z M614.64,183.13c0-37-8.3-55.5-24.89-55.5
			c-7.34,0-13.51,3.49-18.53,10.46c-2.32,3.3-3.47,8.82-3.47,16.57v57.24c0,12.4,1.54,20.83,4.63,25.28
			c4.44,6.59,10.42,9.88,17.94,9.88C606.53,247.06,614.64,225.75,614.64,183.13z"/>
		<path fill="#1A1A1A" d="M799.3,187.93c0,20.78-8.16,37.57-24.47,50.39c-12.82,10.1-26.9,15.15-42.23,15.15
			c-18.25,0-34.03-6.55-47.33-19.66c-13.3-13.11-19.95-28.59-19.95-46.46c0-18.64,6.65-34.52,19.95-47.62
			c13.3-13.11,29.37-19.66,48.2-19.66c18.06,0,33.54,6.65,46.46,19.95C792.85,153.32,799.3,169.29,799.3,187.93z M755.32,188.22
			c0-24.08-1.64-40.58-4.92-49.52c-3.67-9.9-9.56-14.86-17.66-14.86c-7.53,0-13.41,5.2-17.66,15.58
			c-4.25,10.39-6.37,24.71-6.37,42.96c0,25.44,2.51,43.5,7.53,54.18c4.05,8.55,9.74,12.82,17.08,12.82
			c9.07,0,15.06-5.43,17.95-16.31C753.97,222.79,755.32,207.84,755.32,188.22z"/>
		<path fill="#1A1A1A" d="M877.36,247.79c0,1.46-3.68,2.18-11.03,2.18c-1.74,0-7.16-0.2-16.25-0.58c-4.65-0.19-9.19-0.29-13.64-0.29
			c-4.26,0-12.19,0.2-23.8,0.58l-8.71,0.29c-4.26,0.19-6.38-0.48-6.38-2.03c0-1.55,2.23-2.23,6.7-2.04
			c6.79,0.2,10.73-0.48,11.8-2.03c1.06-1.55,1.6-7.36,1.6-17.45V73.15c0-6.59-0.69-10.51-2.07-11.77
			c-1.38-1.26-5.42-1.89-12.11-1.89c-4.92,0-7.38-0.72-7.38-2.17c0-1.65,2.51-2.58,7.54-2.79c21.65-0.77,39.33-4.08,53.05-9.9
			c0,5.83,0,39.9,0,102.24v72.53c0,13.21,0.34,20.93,1.02,23.16c0.68,2.23,3.06,3.25,7.14,3.06h8.74
			C876.1,245.6,877.36,246.33,877.36,247.79z"/>
		<path fill="#1A1A1A" d="M961.25,247.93c0,1.36-0.87,2.04-2.61,2.04h-38.6h-27.86c-1.17,0-2.62,0-4.36,0c-1.55,0-2.42,0-2.61,0
			c-2.32,0-3.48-0.62-3.48-1.87c0-0.93,2.23-1.47,6.7-1.63c6.6-0.19,10.49-0.92,11.65-2.19s1.75-5.12,1.75-11.57v-84.02
			c0-7.42-0.63-11.86-1.89-13.32c-1.27-1.47-5.1-2.2-11.51-2.2c-4.08,0-6.46-0.1-7.14-0.29c-0.68-0.19-1.02-0.87-1.02-2.04
			c0-1.36,1.46-2.04,4.37-2.04c21.36-0.19,42.2-2.91,56.22-12.51c0,3.2,0,11.21,0,21.83v36.99v54.76c0,7.96,0.73,12.62,2.18,13.98
			c1.46,1.36,6.45,2.04,15,2.04C960.18,245.9,961.25,246.58,961.25,247.93z"/>
		<path fill="#1A1A1A" d="M1051.37,231.04c0,2.14-1.86,4.95-5.58,8.45c-9.58,9.13-22.79,13.69-39.61,13.69
			c-15.45,0-25.63-3.79-30.52-11.36c-1.96-2.91-3.08-5.63-3.38-8.16c-0.29-2.52-0.44-9.03-0.44-19.52v-13.98c0-3.53,0-7.57,0-11.65
			v-6.12v-26.21v-20.97c0-3.5-0.49-5.53-1.46-6.12c-0.97-0.58-3.89-0.87-8.74-0.87c-5.82,0-8.74-0.77-8.74-2.33
			c0-1.17,1.06-1.94,3.2-2.33c18.25-0.58,33.98-10.49,47.19-29.71c1.75-2.72,3.1-4.08,4.08-4.08c1.17,0,1.75,1.36,1.75,4.08
			c-0.2,16.7,0.48,25.83,2.04,27.38c1.55,1.56,6.31,2.33,14.27,2.33c8.16,0,13.88-0.39,17.19-1.16c0.39-0.19,0.77-0.29,1.17-0.29
			c0.77,0,1.16,0.61,1.16,1.83c0,2.85-1.25,4.27-3.75,4.27c-7.9,0.2-16.66,0.3-26.28,0.3c-0.77,0-2.12,0-4.04,0v6.08
			c0,51.78,0.39,82.11,1.17,91c1.77,11.2,7.29,16.81,16.56,16.81c4.14,0,9.46-2.91,15.96-8.74c3.15-2.72,5.12-4.08,5.91-4.08
			C1051.07,229.58,1051.37,230.07,1051.37,231.04z"/>
		<path fill="#1A1A1A" d="M1171.95,234.27c0,1.58-1.56,3.75-4.66,6.5c-8.35,7.69-18.64,11.53-30.88,11.53
			c-7.96,0-13.74-1.68-17.33-5.02c-3.6-3.34-5.97-9.34-7.14-18c-8.74,15.92-20.68,23.88-35.83,23.88c-8.35,0-15.1-2.62-20.24-7.86
			c-5.15-5.24-7.72-12.04-7.72-20.39c0-24.47,20.97-38.93,62.91-43.4v-6.12c0-19.42-0.68-31.36-2.04-35.83l-0.29-1.46
			c-2.72-9.71-9.61-14.56-20.68-14.56c-6.41,0-11.55,1.85-15.44,5.53c-3.89,3.69-5.82,7.28-5.82,10.78c0,1.94,2.33,3.11,6.99,3.5
			c6.99,0.58,10.49,4.86,10.49,12.82c0,4.27-1.41,7.82-4.22,10.63c-2.82,2.82-6.46,4.22-10.92,4.22c-5.63,0-10.25-1.7-13.84-5.1
			c-3.6-3.4-5.39-7.72-5.39-12.96c0-8.35,4.17-15.92,12.52-22.72c8.35-6.79,19.32-10.19,32.92-10.19c20.19,0,34.27,3.6,42.23,10.78
			c6.41,6.02,9.61,16.51,9.61,31.46v49.81c0,9.71,0.09,15.34,0.29,16.89c0.97,8.16,3.79,12.23,8.45,12.23
			c3.3,0,7.38-2.33,12.23-6.99c0.97-0.97,1.75-1.46,2.33-1.46C1171.47,232.79,1171.95,233.28,1171.95,234.27z M1111.08,199.58
			v-14.27c-18.84,3.69-28.25,14.37-28.25,32.04c0,13.59,4.66,20.39,13.98,20.39c5.24,0,8.93-2.91,11.07-8.74
			C1110.01,223.18,1111.08,213.37,1111.08,199.58z"/>
		<path fill="#1A1A1A" d="M1324.87,247.93c0,1.56-2.43,2.33-7.28,2.33c-0.39,0-2.91,0-7.57,0c-4.66,0-11.46,0-20.39,0h-9.32h-25.05
			c-2.72,0-4.08-0.72-4.08-2.18c0-1.26,1.14-1.9,3.43-1.9h2.29c4.95,0,7.86-0.63,8.72-1.9c0.86-1.26,1.29-5.61,1.29-13.03v-56.5
			c0-20.88-1.34-33.37-4.01-37.47c-2.29-3.51-6.4-5.27-12.33-5.27c-5.92,0-10.8,1.84-14.62,5.52c-3.82,3.68-5.73,8.33-5.73,13.94
			v88.04c0.39,2.33,1.21,3.83,2.48,4.51c1.26,0.68,4.41,1.12,9.47,1.31c1.55,0,2.33,0.58,2.33,1.74c0,1.17-0.68,1.84-2.04,2.03
			c-1.36,0.19-6.22,0.29-14.56,0.29c-8.35,0-15.25,0.1-20.68,0.29c-10.68,0.39-21.55,0.58-32.62,0.58c-2.33,0-3.5-0.68-3.5-2.03
			c0-1.55,2.96-2.33,8.88-2.33c5.92,0,9.36-1.16,10.34-3.49l0.87-4.06v-66.82c0-18.79-0.2-28.57-0.58-29.34
			c-0.58-2.9-3.2-4.36-7.86-4.36c-2.53,0-4.76,0-6.7,0h-3.2c-3.11,0-4.66-0.63-4.66-1.9c0-1.27,1.16-1.99,3.48-2.18
			c21.64-0.97,38.94-5.53,51.89-13.69c1.54-0.77,2.6-1.17,3.18-1.17c1.55,0,2.32,1.56,2.32,4.66c0,8.55,0,14.08,0,16.6
			c10.29-13.4,23.49-20.1,39.61-20.1c16.7,0,27.57,5.83,32.62,17.48c2.13,4.86,3.45,10.29,3.93,16.31
			c0.48,6.02,0.73,18.45,0.73,37.28v42.23c0,6.02,0.48,9.57,1.46,10.63c0.97,1.07,4.12,1.6,9.46,1.6
			C1322.2,245.6,1324.87,246.38,1324.87,247.93z"/>
	</g>
	<circle fill="#E77B4E" cx="918.2" cy="65.49" r="28.99"/>
</g>
</svg>
